<?xml version="1.0" standalone="no"?>
<!DOCTYPE svg PUBLIC "-//W3C//DTD SVG 20010904//EN"
 "http://www.w3.org/TR/2001/REC-SVG-20010904/DTD/svg10.dtd">
<svg version="1.0" xmlns="http://www.w3.org/2000/svg"
 width="450.000000pt" height="360.000000pt" viewBox="0 0 450.000000 360.000000"
 preserveAspectRatio="xMidYMid meet">

<g transform="translate(0.000000,360.000000) scale(0.100000,-0.100000)"
fill="#000000" stroke="none">
<path d="M1941 2786 c-4 -6 -29 -60 -54 -121 -25 -60 -210 -497 -411 -969
-202 -473 -365 -861 -363 -863 2 -2 27 27 55 65 147 197 405 439 609 570 l51
33 153 384 c85 211 157 381 160 377 3 -4 50 -118 103 -253 l97 -245 92 32 c51
17 136 44 190 59 53 15 97 33 97 39 -1 6 -85 211 -189 456 l-188 445 -197 1
c-127 0 -200 -4 -205 -10z"/>
<path d="M2839 1503 c-59 -63 -130 -153 -193 -245 l-59 -87 74 -181 74 -181
224 0 c123 0 225 2 226 3 2 3 -260 620 -297 701 l-13 28 -36 -38z"/>
</g>
</svg>
